<mxfile host="app.diagrams.net" modified="2023-10-01T21:51:09.886Z" agent="Mozilla/5.0 (Windows NT 10.0; Win64; x64) AppleWebKit/537.36 (KHTML, like Gecko) Chrome/117.0.0.0 Safari/537.36 Edg/117.0.2045.47" etag="omFbOGBQTWctUqqk6eJc" version="22.0.0" type="onedrive">
  <diagram name="Page-1" id="yQ3aiLO5fLipupEVEvCt">
    <mxGraphModel dx="1113" dy="701" grid="1" gridSize="10" guides="1" tooltips="1" connect="1" arrows="1" fold="1" page="1" pageScale="1" pageWidth="1100" pageHeight="1700" math="0" shadow="0">
      <root>
        <mxCell id="0" />
        <mxCell id="1" parent="0" />
        <mxCell id="r1HAKc1o1xaThWAvucr7-1" value="" style="edgeStyle=orthogonalEdgeStyle;rounded=0;orthogonalLoop=1;jettySize=auto;html=1;" parent="1" source="r1HAKc1o1xaThWAvucr7-2" target="r1HAKc1o1xaThWAvucr7-4" edge="1">
          <mxGeometry relative="1" as="geometry" />
        </mxCell>
        <mxCell id="r1HAKc1o1xaThWAvucr7-2" value="Move Player" style="ellipse;whiteSpace=wrap;html=1;" parent="1" vertex="1">
          <mxGeometry x="60" y="10" width="120" height="70" as="geometry" />
        </mxCell>
        <mxCell id="r1HAKc1o1xaThWAvucr7-3" value="" style="edgeStyle=orthogonalEdgeStyle;rounded=0;orthogonalLoop=1;jettySize=auto;html=1;" parent="1" source="r1HAKc1o1xaThWAvucr7-4" target="r1HAKc1o1xaThWAvucr7-7" edge="1">
          <mxGeometry relative="1" as="geometry" />
        </mxCell>
        <mxCell id="r1HAKc1o1xaThWAvucr7-4" value="Switch (movement command in upper case)" style="whiteSpace=wrap;html=1;" parent="1" vertex="1">
          <mxGeometry x="35" y="130" width="170" height="70" as="geometry" />
        </mxCell>
        <mxCell id="r1HAKc1o1xaThWAvucr7-5" value="Yes" style="edgeStyle=orthogonalEdgeStyle;rounded=0;orthogonalLoop=1;jettySize=auto;html=1;entryX=0;entryY=0.5;entryDx=0;entryDy=0;" parent="1" source="r1HAKc1o1xaThWAvucr7-7" target="r1HAKc1o1xaThWAvucr7-36" edge="1">
          <mxGeometry relative="1" as="geometry">
            <mxPoint x="240" y="300" as="targetPoint" />
          </mxGeometry>
        </mxCell>
        <mxCell id="r1HAKc1o1xaThWAvucr7-6" value="No" style="edgeStyle=orthogonalEdgeStyle;rounded=0;orthogonalLoop=1;jettySize=auto;html=1;" parent="1" source="r1HAKc1o1xaThWAvucr7-7" target="r1HAKc1o1xaThWAvucr7-11" edge="1">
          <mxGeometry relative="1" as="geometry" />
        </mxCell>
        <mxCell id="r1HAKc1o1xaThWAvucr7-7" value="Case &quot;W&quot;" style="rhombus;whiteSpace=wrap;html=1;" parent="1" vertex="1">
          <mxGeometry x="75" y="240" width="90" height="90" as="geometry" />
        </mxCell>
        <mxCell id="r1HAKc1o1xaThWAvucr7-9" value="No" style="edgeStyle=orthogonalEdgeStyle;rounded=0;orthogonalLoop=1;jettySize=auto;html=1;" parent="1" source="r1HAKc1o1xaThWAvucr7-11" target="r1HAKc1o1xaThWAvucr7-14" edge="1">
          <mxGeometry relative="1" as="geometry" />
        </mxCell>
        <mxCell id="r1HAKc1o1xaThWAvucr7-10" value="Yes" style="edgeStyle=orthogonalEdgeStyle;rounded=0;orthogonalLoop=1;jettySize=auto;html=1;entryX=0;entryY=0.5;entryDx=0;entryDy=0;" parent="1" source="r1HAKc1o1xaThWAvucr7-11" target="r1HAKc1o1xaThWAvucr7-36" edge="1">
          <mxGeometry relative="1" as="geometry">
            <mxPoint x="270" y="455" as="targetPoint" />
          </mxGeometry>
        </mxCell>
        <mxCell id="r1HAKc1o1xaThWAvucr7-11" value="Case &quot;UP&quot;" style="rhombus;whiteSpace=wrap;html=1;" parent="1" vertex="1">
          <mxGeometry x="75" y="410" width="90" height="90" as="geometry" />
        </mxCell>
        <mxCell id="r1HAKc1o1xaThWAvucr7-12" value="No" style="edgeStyle=orthogonalEdgeStyle;rounded=0;orthogonalLoop=1;jettySize=auto;html=1;" parent="1" source="r1HAKc1o1xaThWAvucr7-14" target="r1HAKc1o1xaThWAvucr7-17" edge="1">
          <mxGeometry relative="1" as="geometry" />
        </mxCell>
        <mxCell id="r1HAKc1o1xaThWAvucr7-13" value="Yes" style="edgeStyle=orthogonalEdgeStyle;rounded=0;orthogonalLoop=1;jettySize=auto;html=1;entryX=0;entryY=0.5;entryDx=0;entryDy=0;" parent="1" source="r1HAKc1o1xaThWAvucr7-14" target="r1HAKc1o1xaThWAvucr7-39" edge="1">
          <mxGeometry relative="1" as="geometry">
            <mxPoint x="239.9999999999999" y="595" as="targetPoint" />
          </mxGeometry>
        </mxCell>
        <mxCell id="r1HAKc1o1xaThWAvucr7-14" value="Case &quot;S&quot;" style="rhombus;whiteSpace=wrap;html=1;" parent="1" vertex="1">
          <mxGeometry x="75" y="580" width="90" height="90" as="geometry" />
        </mxCell>
        <mxCell id="r1HAKc1o1xaThWAvucr7-15" value="No" style="edgeStyle=orthogonalEdgeStyle;rounded=0;orthogonalLoop=1;jettySize=auto;html=1;" parent="1" source="r1HAKc1o1xaThWAvucr7-17" target="r1HAKc1o1xaThWAvucr7-20" edge="1">
          <mxGeometry relative="1" as="geometry" />
        </mxCell>
        <mxCell id="r1HAKc1o1xaThWAvucr7-16" value="Yes" style="edgeStyle=orthogonalEdgeStyle;rounded=0;orthogonalLoop=1;jettySize=auto;html=1;entryX=0;entryY=0.5;entryDx=0;entryDy=0;" parent="1" source="r1HAKc1o1xaThWAvucr7-17" target="r1HAKc1o1xaThWAvucr7-39" edge="1">
          <mxGeometry relative="1" as="geometry">
            <mxPoint x="260" y="795" as="targetPoint" />
          </mxGeometry>
        </mxCell>
        <mxCell id="r1HAKc1o1xaThWAvucr7-17" value="Case &quot;DOWN&quot;" style="rhombus;whiteSpace=wrap;html=1;" parent="1" vertex="1">
          <mxGeometry x="75" y="750" width="90" height="90" as="geometry" />
        </mxCell>
        <mxCell id="r1HAKc1o1xaThWAvucr7-18" value="Yes" style="edgeStyle=orthogonalEdgeStyle;rounded=0;orthogonalLoop=1;jettySize=auto;html=1;entryX=0;entryY=0.5;entryDx=0;entryDy=0;" parent="1" source="r1HAKc1o1xaThWAvucr7-20" target="r1HAKc1o1xaThWAvucr7-42" edge="1">
          <mxGeometry relative="1" as="geometry">
            <mxPoint x="240" y="785" as="targetPoint" />
          </mxGeometry>
        </mxCell>
        <mxCell id="r1HAKc1o1xaThWAvucr7-19" value="No" style="edgeStyle=orthogonalEdgeStyle;rounded=0;orthogonalLoop=1;jettySize=auto;html=1;" parent="1" source="r1HAKc1o1xaThWAvucr7-20" target="r1HAKc1o1xaThWAvucr7-26" edge="1">
          <mxGeometry relative="1" as="geometry" />
        </mxCell>
        <mxCell id="r1HAKc1o1xaThWAvucr7-20" value="Case &quot;A&quot;" style="rhombus;whiteSpace=wrap;html=1;" parent="1" vertex="1">
          <mxGeometry x="75" y="920" width="90" height="90" as="geometry" />
        </mxCell>
        <mxCell id="r1HAKc1o1xaThWAvucr7-25" value="Yes" style="edgeStyle=orthogonalEdgeStyle;rounded=0;orthogonalLoop=1;jettySize=auto;html=1;entryX=0;entryY=0.5;entryDx=0;entryDy=0;" parent="1" source="r1HAKc1o1xaThWAvucr7-26" target="r1HAKc1o1xaThWAvucr7-42" edge="1">
          <mxGeometry relative="1" as="geometry">
            <mxPoint x="270" y="1135" as="targetPoint" />
          </mxGeometry>
        </mxCell>
        <mxCell id="r1HAKc1o1xaThWAvucr7-46" value="No" style="edgeStyle=orthogonalEdgeStyle;rounded=0;orthogonalLoop=1;jettySize=auto;html=1;" parent="1" source="r1HAKc1o1xaThWAvucr7-26" target="r1HAKc1o1xaThWAvucr7-45" edge="1">
          <mxGeometry relative="1" as="geometry" />
        </mxCell>
        <mxCell id="r1HAKc1o1xaThWAvucr7-26" value="Case &quot;LEFT&quot;" style="rhombus;whiteSpace=wrap;html=1;" parent="1" vertex="1">
          <mxGeometry x="75" y="1090" width="90" height="90" as="geometry" />
        </mxCell>
        <mxCell id="r1HAKc1o1xaThWAvucr7-35" value="End" style="ellipse;whiteSpace=wrap;html=1;" parent="1" vertex="1">
          <mxGeometry x="810" y="1580" width="120" height="70" as="geometry" />
        </mxCell>
        <mxCell id="YJ2bRn7sZ_DQycNluHCM-24" value="Yes" style="edgeStyle=orthogonalEdgeStyle;rounded=0;orthogonalLoop=1;jettySize=auto;html=1;exitX=1;exitY=0.5;exitDx=0;exitDy=0;" parent="1" source="r1HAKc1o1xaThWAvucr7-36" target="r1HAKc1o1xaThWAvucr7-58" edge="1">
          <mxGeometry relative="1" as="geometry">
            <Array as="points">
              <mxPoint x="400" y="370" />
              <mxPoint x="400" y="370" />
            </Array>
          </mxGeometry>
        </mxCell>
        <mxCell id="YJ2bRn7sZ_DQycNluHCM-28" style="edgeStyle=orthogonalEdgeStyle;rounded=0;orthogonalLoop=1;jettySize=auto;html=1;exitX=0.5;exitY=0;exitDx=0;exitDy=0;" parent="1" source="r1HAKc1o1xaThWAvucr7-36" target="r1HAKc1o1xaThWAvucr7-35" edge="1">
          <mxGeometry relative="1" as="geometry" />
        </mxCell>
        <mxCell id="YJ2bRn7sZ_DQycNluHCM-29" value="No" style="edgeLabel;html=1;align=center;verticalAlign=middle;resizable=0;points=[];" parent="YJ2bRn7sZ_DQycNluHCM-28" vertex="1" connectable="0">
          <mxGeometry x="-0.7435" y="1" relative="1" as="geometry">
            <mxPoint as="offset" />
          </mxGeometry>
        </mxCell>
        <mxCell id="r1HAKc1o1xaThWAvucr7-36" value="Player Y &amp;gt; 0?" style="rhombus;whiteSpace=wrap;html=1;" parent="1" vertex="1">
          <mxGeometry x="270" y="325" width="90" height="90" as="geometry" />
        </mxCell>
        <mxCell id="YJ2bRn7sZ_DQycNluHCM-19" value="Yes" style="edgeStyle=orthogonalEdgeStyle;rounded=0;orthogonalLoop=1;jettySize=auto;html=1;exitX=1;exitY=0.5;exitDx=0;exitDy=0;entryX=0;entryY=0.5;entryDx=0;entryDy=0;" parent="1" source="r1HAKc1o1xaThWAvucr7-39" target="r1HAKc1o1xaThWAvucr7-61" edge="1">
          <mxGeometry relative="1" as="geometry" />
        </mxCell>
        <mxCell id="YJ2bRn7sZ_DQycNluHCM-31" style="edgeStyle=orthogonalEdgeStyle;rounded=0;orthogonalLoop=1;jettySize=auto;html=1;exitX=0.5;exitY=0;exitDx=0;exitDy=0;" parent="1" source="r1HAKc1o1xaThWAvucr7-39" target="r1HAKc1o1xaThWAvucr7-35" edge="1">
          <mxGeometry relative="1" as="geometry">
            <Array as="points">
              <mxPoint x="315" y="640" />
              <mxPoint x="870" y="640" />
            </Array>
          </mxGeometry>
        </mxCell>
        <mxCell id="YJ2bRn7sZ_DQycNluHCM-32" value="No" style="edgeLabel;html=1;align=center;verticalAlign=middle;resizable=0;points=[];" parent="YJ2bRn7sZ_DQycNluHCM-31" vertex="1" connectable="0">
          <mxGeometry x="-0.6642" y="3" relative="1" as="geometry">
            <mxPoint x="-10" as="offset" />
          </mxGeometry>
        </mxCell>
        <mxCell id="r1HAKc1o1xaThWAvucr7-39" value="Player Y &amp;lt; &lt;br&gt;World height -1?" style="rhombus;whiteSpace=wrap;html=1;" parent="1" vertex="1">
          <mxGeometry x="260" y="662.5" width="110" height="95" as="geometry" />
        </mxCell>
        <mxCell id="YJ2bRn7sZ_DQycNluHCM-25" value="Yes" style="edgeStyle=orthogonalEdgeStyle;rounded=0;orthogonalLoop=1;jettySize=auto;html=1;exitX=1;exitY=0.5;exitDx=0;exitDy=0;entryX=0;entryY=0.5;entryDx=0;entryDy=0;" parent="1" source="r1HAKc1o1xaThWAvucr7-42" target="r1HAKc1o1xaThWAvucr7-64" edge="1">
          <mxGeometry relative="1" as="geometry" />
        </mxCell>
        <mxCell id="YJ2bRn7sZ_DQycNluHCM-34" style="edgeStyle=orthogonalEdgeStyle;rounded=0;orthogonalLoop=1;jettySize=auto;html=1;exitX=0.5;exitY=0;exitDx=0;exitDy=0;" parent="1" source="r1HAKc1o1xaThWAvucr7-42" target="r1HAKc1o1xaThWAvucr7-35" edge="1">
          <mxGeometry relative="1" as="geometry">
            <Array as="points">
              <mxPoint x="315" y="980" />
              <mxPoint x="870" y="980" />
            </Array>
          </mxGeometry>
        </mxCell>
        <mxCell id="YJ2bRn7sZ_DQycNluHCM-35" value="No" style="edgeLabel;html=1;align=center;verticalAlign=middle;resizable=0;points=[];" parent="YJ2bRn7sZ_DQycNluHCM-34" vertex="1" connectable="0">
          <mxGeometry x="-0.5933" relative="1" as="geometry">
            <mxPoint x="1" as="offset" />
          </mxGeometry>
        </mxCell>
        <mxCell id="r1HAKc1o1xaThWAvucr7-42" value="Player X &amp;gt; 0?" style="rhombus;whiteSpace=wrap;html=1;" parent="1" vertex="1">
          <mxGeometry x="270" y="1005" width="90" height="90" as="geometry" />
        </mxCell>
        <mxCell id="r1HAKc1o1xaThWAvucr7-48" value="No" style="edgeStyle=orthogonalEdgeStyle;rounded=0;orthogonalLoop=1;jettySize=auto;html=1;" parent="1" source="r1HAKc1o1xaThWAvucr7-45" target="r1HAKc1o1xaThWAvucr7-47" edge="1">
          <mxGeometry relative="1" as="geometry" />
        </mxCell>
        <mxCell id="r1HAKc1o1xaThWAvucr7-51" value="Yes" style="edgeStyle=orthogonalEdgeStyle;rounded=0;orthogonalLoop=1;jettySize=auto;html=1;exitX=1;exitY=0.5;exitDx=0;exitDy=0;" parent="1" source="r1HAKc1o1xaThWAvucr7-45" target="r1HAKc1o1xaThWAvucr7-50" edge="1">
          <mxGeometry relative="1" as="geometry" />
        </mxCell>
        <mxCell id="r1HAKc1o1xaThWAvucr7-45" value="Case &quot;D&quot;" style="rhombus;whiteSpace=wrap;html=1;" parent="1" vertex="1">
          <mxGeometry x="75" y="1265" width="90" height="90" as="geometry" />
        </mxCell>
        <mxCell id="r1HAKc1o1xaThWAvucr7-54" value="Yes" style="edgeStyle=orthogonalEdgeStyle;rounded=0;orthogonalLoop=1;jettySize=auto;html=1;exitX=1;exitY=0.5;exitDx=0;exitDy=0;entryX=0;entryY=0.5;entryDx=0;entryDy=0;" parent="1" source="r1HAKc1o1xaThWAvucr7-47" target="r1HAKc1o1xaThWAvucr7-50" edge="1">
          <mxGeometry relative="1" as="geometry">
            <mxPoint x="260" y="1485" as="targetPoint" />
          </mxGeometry>
        </mxCell>
        <mxCell id="r1HAKc1o1xaThWAvucr7-71" value="No" style="edgeStyle=orthogonalEdgeStyle;rounded=0;orthogonalLoop=1;jettySize=auto;html=1;" parent="1" source="r1HAKc1o1xaThWAvucr7-47" target="r1HAKc1o1xaThWAvucr7-70" edge="1">
          <mxGeometry relative="1" as="geometry" />
        </mxCell>
        <mxCell id="r1HAKc1o1xaThWAvucr7-47" value="Case &quot;RIGHT&quot;" style="rhombus;whiteSpace=wrap;html=1;" parent="1" vertex="1">
          <mxGeometry x="75" y="1440" width="90" height="90" as="geometry" />
        </mxCell>
        <mxCell id="r1HAKc1o1xaThWAvucr7-68" value="Yes" style="edgeStyle=orthogonalEdgeStyle;rounded=0;orthogonalLoop=1;jettySize=auto;html=1;exitX=1;exitY=0.5;exitDx=0;exitDy=0;entryX=0;entryY=0.5;entryDx=0;entryDy=0;" parent="1" source="r1HAKc1o1xaThWAvucr7-50" target="r1HAKc1o1xaThWAvucr7-67" edge="1">
          <mxGeometry x="-0.1076" relative="1" as="geometry">
            <mxPoint as="offset" />
          </mxGeometry>
        </mxCell>
        <mxCell id="YJ2bRn7sZ_DQycNluHCM-38" style="edgeStyle=orthogonalEdgeStyle;rounded=0;orthogonalLoop=1;jettySize=auto;html=1;exitX=0.5;exitY=0;exitDx=0;exitDy=0;" parent="1" source="r1HAKc1o1xaThWAvucr7-50" target="r1HAKc1o1xaThWAvucr7-35" edge="1">
          <mxGeometry relative="1" as="geometry">
            <Array as="points">
              <mxPoint x="315" y="1320" />
              <mxPoint x="870" y="1320" />
            </Array>
          </mxGeometry>
        </mxCell>
        <mxCell id="LV13PSoYu6DXvPtzDV60-1" value="No" style="edgeLabel;html=1;align=center;verticalAlign=middle;resizable=0;points=[];" vertex="1" connectable="0" parent="YJ2bRn7sZ_DQycNluHCM-38">
          <mxGeometry x="-0.5073" y="2" relative="1" as="geometry">
            <mxPoint y="2" as="offset" />
          </mxGeometry>
        </mxCell>
        <mxCell id="r1HAKc1o1xaThWAvucr7-50" value="Player X &amp;lt; &lt;br&gt;World width -1?" style="rhombus;whiteSpace=wrap;html=1;" parent="1" vertex="1">
          <mxGeometry x="260" y="1352.5" width="110" height="95" as="geometry" />
        </mxCell>
        <mxCell id="YJ2bRn7sZ_DQycNluHCM-41" style="edgeStyle=orthogonalEdgeStyle;rounded=0;orthogonalLoop=1;jettySize=auto;html=1;exitX=1;exitY=0.5;exitDx=0;exitDy=0;" parent="1" source="r1HAKc1o1xaThWAvucr7-58" target="r1HAKc1o1xaThWAvucr7-35" edge="1">
          <mxGeometry relative="1" as="geometry" />
        </mxCell>
        <mxCell id="r1HAKc1o1xaThWAvucr7-58" value="Player Y = Player Y - 1" style="rounded=0;whiteSpace=wrap;html=1;" parent="1" vertex="1">
          <mxGeometry x="520" y="340" width="135" height="60" as="geometry" />
        </mxCell>
        <mxCell id="YJ2bRn7sZ_DQycNluHCM-42" style="edgeStyle=orthogonalEdgeStyle;rounded=0;orthogonalLoop=1;jettySize=auto;html=1;exitX=1;exitY=0.5;exitDx=0;exitDy=0;" parent="1" source="r1HAKc1o1xaThWAvucr7-61" target="r1HAKc1o1xaThWAvucr7-35" edge="1">
          <mxGeometry relative="1" as="geometry" />
        </mxCell>
        <mxCell id="r1HAKc1o1xaThWAvucr7-61" value="Player Y = Player Y + 1" style="rounded=0;whiteSpace=wrap;html=1;" parent="1" vertex="1">
          <mxGeometry x="520" y="680" width="135" height="60" as="geometry" />
        </mxCell>
        <mxCell id="YJ2bRn7sZ_DQycNluHCM-43" style="edgeStyle=orthogonalEdgeStyle;rounded=0;orthogonalLoop=1;jettySize=auto;html=1;exitX=1;exitY=0.5;exitDx=0;exitDy=0;" parent="1" source="r1HAKc1o1xaThWAvucr7-64" target="r1HAKc1o1xaThWAvucr7-35" edge="1">
          <mxGeometry relative="1" as="geometry" />
        </mxCell>
        <mxCell id="r1HAKc1o1xaThWAvucr7-64" value="Player X = Player X - 1" style="rounded=0;whiteSpace=wrap;html=1;" parent="1" vertex="1">
          <mxGeometry x="520" y="1020" width="135" height="60" as="geometry" />
        </mxCell>
        <mxCell id="YJ2bRn7sZ_DQycNluHCM-44" style="edgeStyle=orthogonalEdgeStyle;rounded=0;orthogonalLoop=1;jettySize=auto;html=1;exitX=1;exitY=0.5;exitDx=0;exitDy=0;" parent="1" source="r1HAKc1o1xaThWAvucr7-67" target="r1HAKc1o1xaThWAvucr7-35" edge="1">
          <mxGeometry relative="1" as="geometry" />
        </mxCell>
        <mxCell id="r1HAKc1o1xaThWAvucr7-67" value="Player X = Player X + 1" style="rounded=0;whiteSpace=wrap;html=1;" parent="1" vertex="1">
          <mxGeometry x="520" y="1370" width="135" height="60" as="geometry" />
        </mxCell>
        <mxCell id="r1HAKc1o1xaThWAvucr7-73" value="" style="edgeStyle=orthogonalEdgeStyle;rounded=0;orthogonalLoop=1;jettySize=auto;html=1;entryX=0;entryY=0.5;entryDx=0;entryDy=0;" parent="1" source="r1HAKc1o1xaThWAvucr7-70" target="r1HAKc1o1xaThWAvucr7-35" edge="1">
          <mxGeometry relative="1" as="geometry">
            <mxPoint x="599.9999999999998" y="1270" as="targetPoint" />
          </mxGeometry>
        </mxCell>
        <mxCell id="r1HAKc1o1xaThWAvucr7-70" value="Default" style="rhombus;whiteSpace=wrap;html=1;" parent="1" vertex="1">
          <mxGeometry x="75" y="1570" width="90" height="90" as="geometry" />
        </mxCell>
      </root>
    </mxGraphModel>
  </diagram>
</mxfile>
